<?xml version="1.0" encoding="utf-8"?>
<!-- Generator: Adobe Illustrator 19.1.0, SVG Export Plug-In . SVG Version: 6.00 Build 0)  -->
<svg version="1.1" id="Norges_Bank_Investment_Management"
	 xmlns="http://www.w3.org/2000/svg" xmlns:xlink="http://www.w3.org/1999/xlink" x="0px" y="0px" viewBox="0 0 381.2 67.4"
	 style="enable-background:new 0 0 381.2 67.4;" xml:space="preserve">
<style type="text/css">
	.st0{fill:url(#SVGID_1_);}
	.st1{fill:url(#SVGID_2_);}
</style>
<g>
	<g>
		<g>
			<path d="M99.9,9.5l15.4,19.3V9.5h3.1v25.2h-2.2l-15.5-19.2v19.2h-3.1V9.5H99.9z"/>
			<path d="M150.5,22.1c0,6.6-4.1,13-12.8,13c-8.6,0-12.8-6.4-12.8-13c0-7.3,4.9-13.1,12.8-13.1C146.2,9.1,150.5,15.5,150.5,22.1z
				 M137.7,11.9c-6.4,0-9.7,4.7-9.7,10.2c0,5.1,3.1,10.1,9.7,10.1c6.6,0,9.6-5.1,9.6-10.1C147.4,17,144.3,12,137.7,11.9z"/>
			<path d="M166.6,25.6H160v9.1h-3.1V9.5h11.4c5.7,0,8.5,4,8.5,8.1c0,3.8-2.2,7.3-6.5,7.7l7.6,9.4h-4L166.6,25.6z M173.7,17.6
				c0-2.5-1.8-5.3-5.4-5.3H160v10.5h8.2C172,22.8,173.7,20.5,173.7,17.6z"/>
			<path d="M203.3,14.8c-2-1.9-4.9-2.9-7.4-2.9c-6.5,0-10,4.8-10,10.4c0,5.1,3.2,9.9,10.1,9.9c2.4,0,4.8-0.8,6.9-2.6v-6h-7.8v-2.8
				h10.7v10c-2.6,2.7-5.7,4.3-9.7,4.3c-8.9,0-13.1-6.1-13.1-12.8c0-7.5,4.9-13.3,13.1-13.3c3.3,0,6.7,1.3,9.2,3.8L203.3,14.8z"/>
			<path d="M213.5,9.5h17.7v2.9h-14.6v7.9h14v2.9h-14v8.5h15.2v3h-18.3V9.5z"/>
			<path d="M247.5,11.8c-3.2,0-6.6,1.3-6.6,4.3c0,2.7,3.1,3.5,6.8,4.1c5,0.8,10,1.8,10,7.5c0,5.6-5.4,7.5-10.2,7.5
				c-4.5,0-8.7-1.6-10.6-5.8l2.6-1.5c1.6,3,5,4.4,8.1,4.4c3.1,0,7.1-1,7.1-4.7c0-3.1-3.5-4-7.3-4.6c-4.9-0.8-9.6-1.9-9.6-7
				c-0.1-5.2,5.3-7,9.6-7c3.7,0,7.3,0.8,9.5,4.6l-2.4,1.5C253.2,12.8,250.3,11.8,247.5,11.8z"/>
			<path d="M289.5,9.5c4.6,0,8.4,2.3,8.4,7c0,2.3-1.3,4.2-3.7,5.2c3.1,0.9,4.5,3.7,4.5,6c0,5.4-4.5,6.9-9.2,6.9h-11V9.5H289.5z
				 M281.6,20.3h8c3,0,5.2-1.1,5.2-3.7c0-2.8-2.3-4.2-5.4-4.2h-7.9V20.3z M281.6,31.7h7.9c2.6,0,6.1-0.7,6.1-4.1
				c0-3.2-3.2-4.5-6-4.5h-8V31.7z"/>
			<path d="M317.3,9.5l11.3,25.2h-3.4l-2.5-5.5h-14.4l-2.4,5.5h-3.4l11.3-25.2H317.3z M315.5,12.7l-6,13.6h11.9L315.5,12.7z"/>
			<path d="M335.6,9.5L351,28.8V9.5h3.1v25.2h-2.2l-15.5-19.2v19.2h-3.1V9.5H335.6z"/>
			<path d="M362,9.5h3.1v11.1l11.1-11.1h3.9v0.2l-12.1,11.9l13.2,12.8v0.2h-3.9l-12.3-11.8v11.8H362V9.5z"/>
		</g>
		<g>
			<rect x="98.1" y="46.1" width="1.9" height="12.2"/>
			<polygon points="113.4,58.2 106.5,49.6 106.5,58.2 104.6,58.2 104.6,46.1 106,46.1 112.9,54.7 112.9,46.1 114.7,46.1 114.7,58.2 
							"/>
			<polygon points="123.1,58.3 118,46.1 120.1,46.1 124,55.8 127.9,46.1 129.9,46.1 124.9,58.3 			"/>
			<polygon points="133.1,58.2 133.1,46.1 141.8,46.1 141.8,47.8 135,47.8 135,51.1 141.5,51.1 141.5,52.9 135,52.9 135,56.4 
				142.1,56.4 142.1,58.2 			"/>
			<path d="M150.4,58.5c-2.5,0-4.3-1-5.2-2.8l-0.1-0.2l1.5-0.9l0.1,0.2c0.6,1.2,2.1,2,3.6,2c0.7,0,3.1-0.1,3.1-2
				c0-1.2-1.3-1.7-3.2-2c-2.3-0.4-4.6-0.9-4.6-3.5c0-0.9,0.3-1.6,0.8-2.2c1.2-1.2,3.1-1.3,3.9-1.3c1.5,0,3.5,0.3,4.6,2.2l0.1,0.2
				l-1.4,0.9l-0.1-0.2c-0.5-0.9-1.7-1.4-3.1-1.4c-1.4,0-2.9,0.6-2.9,1.8c0,1,1.1,1.4,3,1.7c2.2,0.3,4.8,0.8,4.8,3.7
				C155.4,57.5,152.8,58.5,150.4,58.5z"/>
			<polygon points="162.2,58.2 162.2,47.8 158.2,47.8 158.2,46.1 168,46.1 168,47.8 164,47.8 164,58.2 			"/>
			<polygon points="246.8,58.2 246.8,49 242.8,54.5 242.3,54.5 238.3,49 238.3,58.2 236.5,58.2 236.5,46.1 238.5,46.1 242.5,52 
				246.5,46.1 248.6,46.1 248.6,58.2 			"/>
			<path d="M262.9,58.2l-1.2-2.6h-6.5l-1.1,2.6h-2l5.4-12.2h1.9l5.5,12.2H262.9z M261,53.9l-2.5-5.7l-2.5,5.7H261z"/>
			<polygon points="277.6,58.2 270.7,49.6 270.7,58.2 268.9,58.2 268.9,46.1 270.2,46.1 277.1,54.7 277.1,46.1 278.9,46.1 
				278.9,58.2 			"/>
			<path d="M293.3,58.2l-1.2-2.6h-6.5l-1.1,2.6h-2l5.5-12.2h1.9l5.5,12.2H293.3z M291.4,53.9l-2.5-5.7l-2.5,5.7H291.4z"/>
			<path d="M304.3,58.4c-4.7,0-6.3-3.3-6.3-6.2c0-1.9,0.6-3.5,1.8-4.7c1.1-1.1,2.7-1.7,4.5-1.7c1.7,0,3.3,0.6,4.5,1.8l0.1,0.1
				l-1.1,1.3l-0.2-0.1c-0.8-0.8-2.1-1.3-3.3-1.3c-3.1,0-4.5,2.4-4.5,4.7c0,2.2,1.4,4.4,4.5,4.4c1.1,0,2.2-0.4,3-1.1v-2.5h-3.7v-1.7
				h5.4v4.9l-0.1,0.1C307.7,57.8,306.2,58.4,304.3,58.4z"/>
			<polygon points="313.8,58.2 313.8,46.1 322.4,46.1 322.4,47.8 315.6,47.8 315.6,51.1 322.1,51.1 322.1,52.9 315.6,52.9 
				315.6,56.4 322.7,56.4 322.7,58.2 			"/>
			<polygon points="337.4,58.2 337.4,49 333.5,54.5 333,54.5 329,49 329,58.2 327.2,58.2 327.2,46.1 329.2,46.1 333.2,52 
				337.2,46.1 339.3,46.1 339.3,58.2 			"/>
			<polygon points="344,58.2 344,46.1 352.6,46.1 352.6,47.8 345.8,47.8 345.8,51.1 352.4,51.1 352.4,52.9 345.8,52.9 345.8,56.4 
				352.9,56.4 352.9,58.2 			"/>
			<polygon points="366.1,58.2 359.2,49.6 359.2,58.2 357.3,58.2 357.3,46.1 358.7,46.1 365.6,54.7 365.6,46.1 367.4,46.1 
				367.4,58.2 			"/>
			<polygon points="375.3,58.2 375.3,47.8 371.3,47.8 371.3,46.1 381.2,46.1 381.2,47.8 377.2,47.8 377.2,58.2 			"/>
			<path d="M262.9,58.2l-1.2-2.6h-6.5l-1.1,2.6h-2l5.4-12.1h1.9l5.4,12.1H262.9z M261,53.9l-2.5-5.7l-2.5,5.7H261z"/>
			<polygon points="277.6,58.2 270.7,49.6 270.7,58.2 268.9,58.2 268.9,46.1 270.2,46.1 277.1,54.7 277.1,46.1 278.9,46.1 
				278.9,58.2 			"/>
			<polygon points="181.9,58.2 181.9,49 178,54.5 177.5,54.5 173.5,49 173.5,58.2 171.6,58.2 171.6,46.1 173.7,46.1 177.7,52 
				181.7,46.1 183.8,46.1 183.8,58.2 			"/>
			<polygon points="188.5,58.2 188.5,46.1 197.1,46.1 197.1,47.8 190.3,47.8 190.3,51.1 196.8,51.1 196.8,52.8 190.3,52.8 
				190.3,56.4 197.4,56.4 197.4,58.2 			"/>
			<polygon points="210.6,58.2 203.7,49.6 203.7,58.2 201.8,58.2 201.8,46.1 203.1,46.1 210.1,54.7 210.1,46.1 211.9,46.1 
				211.9,58.2 			"/>
			<polygon points="219.6,58.2 219.6,47.8 215.6,47.8 215.6,46.1 225.5,46.1 225.5,47.8 221.5,47.8 221.5,58.2 			"/>
		</g>
	</g>
	<g>
		<linearGradient id="SVGID_1_" gradientUnits="userSpaceOnUse" x1="6.7705" y1="51.7199" x2="45.2708" y2="-15.6971">
			<stop  offset="0" style="stop-color:#2C7399"/>
			<stop  offset="0.5" style="stop-color:#7BB6CE"/>
			<stop  offset="1" style="stop-color:#B0DEF1"/>
		</linearGradient>
		<polygon class="st0" points="0,0 0,67.4 34.1,67.4 34.1,32 8.2,0 		"/>
		<linearGradient id="SVGID_2_" gradientUnits="userSpaceOnUse" x1="35.8983" y1="68.3545" x2="74.3989" y2="0.937">
			<stop  offset="0" style="stop-color:#2C7399"/>
			<stop  offset="0.5" style="stop-color:#7BB6CE"/>
			<stop  offset="1" style="stop-color:#B0DEF1"/>
		</linearGradient>
		<polygon class="st1" points="72.7,67.4 72.7,0 38.6,0 38.6,35.4 64.6,67.4 		"/>
	</g>
</g>
</svg>
